 http://www.imdb.com/title/tt0332379/

Source: The.School.Of.Rock.2003.720p.BluRay.x264-SiNNERS Thanks!

Subs: Danish, Dutch, English, Finnish, Greek, Hebrew, Servian, Spanish and Vietnamese.

Sample and Screens included.

General
Complete name                    : The School Of Rock-720p MP4 AAC x264 BRRip 2003-CC.mp4
Format                           : MPEG-4
Format profile                   : Base Media
Codec ID                         : isom
File size                        : 2.13 GiB
Duration                         : 1h 49mn
Overall bit rate                 : 2 793 Kbps
Encoded date                     : UTC 2012-07-18 13:38:20

Video
ID                               : 1
Format                           : AVC
Format/Info                      : Advanced Video Codec
Format profile                   : High@L3.1
Format settings, CABAC           : Yes
Format settings, ReFrames        : 5 frames
Codec ID                         : avc1
Codec ID/Info                    : Advanced Video Coding
Duration                         : 1h 49mn
Bit rate mode                    : Variable
Bit rate                         : 2 404 Kbps
Nominal bit rate                 : 2 375 Kbps
Maximum bit rate                 : 14.5 Mbps
Width                            : 1 280 pixels
Height                           : 720 pixels
Display aspect ratio             : 16:9
Frame rate mode                  : Variable
Frame rate                       : 23.976 fps
Minimum frame rate               : 19.048 fps
Maximum frame rate               : 24.390 fps
Resolution                       : 24 bits
Colorimetry                      : 4:2:0
Scan type                        : Progressive
Bits/(Pixel*Frame)               : 0.109
Stream size                      : 1.84 GiB (86%)
Writing library                  : x264 core 112


Audio
ID                               : 2
Format                           : AAC
Format/Info                      : Advanced Audio Codec
Format version                   : Version 4
Format profile                   : LC
Format settings, SBR             : No
Codec ID                         : 40
Duration                         : 1h 49mn
Bit rate mode                    : Variable
Bit rate                         : 384 Kbps
Maximum bit rate                 : 834 Kbps
Channel(s)                       : 6 channels
Channel positions                : Front: L C R, Rear: L R, LFE
Sampling rate                    : 48.0 KHz
Resolution                       : 16 bits
Stream size                      : 300 MiB (14%)
Language                         : English

Enjoy...

Requested by Alorati.